%TF.GenerationSoftware,Altium Limited,Altium Designer,26.9.1 (10)*%
G04 Layer_Color=2752767*
G04 Board_Origin=0|0*
%FSLAX45Y45*%
%MOMM*%
%TF.SameCoordinates,0F0F98C6-4292-453F-8291-51E5F11EF676*%
%TF.FilePolarity,Positive*%
%TF.FileFunction,Drawing*%
%TF.Part,Single*%
G01*
G75*
%TA.AperFunction,NonConductor*%
%ADD53C,0.12700*%
%ADD133C,0.16933*%
D53*
X8496300Y8051800D02*
X8521700D01*
X8547100Y8077200D01*
X8572500Y8051800D01*
X8597900D01*
Y8077200D01*
X8572500Y8102600D01*
X8597900Y8128000D01*
Y8153400D01*
X8572500D01*
X8547100Y8128000D01*
X8521700Y8153400D01*
X8496300D01*
Y8128000D01*
X8521700Y8102600D01*
X8496300Y8077200D01*
Y8051800D01*
X7899400Y9410700D02*
X7924800D01*
X7950200Y9436100D01*
X7975600Y9410700D01*
X8001000D01*
Y9436100D01*
X7975600Y9461500D01*
X8001000Y9486900D01*
Y9512300D01*
X7975600D01*
X7950200Y9486900D01*
X7924800Y9512300D01*
X7899400D01*
Y9486900D01*
X7924800Y9461500D01*
X7899400Y9436100D01*
Y9410700D01*
X8340040Y9327866D02*
X8365440D01*
X8390840Y9353266D01*
X8416240Y9327866D01*
X8441640D01*
Y9353266D01*
X8416240Y9378666D01*
X8441640Y9404066D01*
Y9429466D01*
X8416240D01*
X8390840Y9404066D01*
X8365440Y9429466D01*
X8340040D01*
Y9404066D01*
X8365440Y9378666D01*
X8340040Y9353266D01*
Y9327866D01*
Y9505666D02*
X8365440D01*
X8390840Y9531066D01*
X8416240Y9505666D01*
X8441640D01*
Y9531066D01*
X8416240Y9556466D01*
X8441640Y9581866D01*
Y9607266D01*
X8416240D01*
X8390840Y9581866D01*
X8365440Y9607266D01*
X8340040D01*
Y9581866D01*
X8365440Y9556466D01*
X8340040Y9531066D01*
Y9505666D01*
Y9683466D02*
X8365440D01*
X8390840Y9708866D01*
X8416240Y9683466D01*
X8441640D01*
Y9708866D01*
X8416240Y9734266D01*
X8441640Y9759666D01*
Y9785066D01*
X8416240D01*
X8390840Y9759666D01*
X8365440Y9785066D01*
X8340040D01*
Y9759666D01*
X8365440Y9734266D01*
X8340040Y9708866D01*
Y9683466D01*
X12077700Y9207500D02*
X12103100D01*
X12128500Y9232900D01*
X12153900Y9207500D01*
X12179300D01*
Y9232900D01*
X12153900Y9258300D01*
X12179300Y9283700D01*
Y9309100D01*
X12153900D01*
X12128500Y9283700D01*
X12103100Y9309100D01*
X12077700D01*
Y9283700D01*
X12103100Y9258300D01*
X12077700Y9232900D01*
Y9207500D01*
X11658600Y9194800D02*
X11684000D01*
X11709400Y9220200D01*
X11734800Y9194800D01*
X11760200D01*
Y9220200D01*
X11734800Y9245600D01*
X11760200Y9271000D01*
Y9296400D01*
X11734800D01*
X11709400Y9271000D01*
X11684000Y9296400D01*
X11658600D01*
Y9271000D01*
X11684000Y9245600D01*
X11658600Y9220200D01*
Y9194800D01*
X12077700Y9093400D02*
Y9195000D01*
X12179300D01*
Y9093400D01*
X12077700D01*
X11480800Y9042400D02*
X11506200D01*
X11531600Y9067800D01*
X11557000Y9042400D01*
X11582400D01*
Y9067800D01*
X11557000Y9093200D01*
X11582400Y9118600D01*
Y9144000D01*
X11557000D01*
X11531600Y9118600D01*
X11506200Y9144000D01*
X11480800D01*
Y9118600D01*
X11506200Y9093200D01*
X11480800Y9067800D01*
Y9042400D01*
X12077700Y8229400D02*
Y8331000D01*
X12179300D01*
Y8229400D01*
X12077700D01*
X12052300Y8115300D02*
X12077700D01*
X12103100Y8140700D01*
X12128500Y8115300D01*
X12153900D01*
Y8140700D01*
X12128500Y8166100D01*
X12153900Y8191500D01*
Y8216900D01*
X12128500D01*
X12103100Y8191500D01*
X12077700Y8216900D01*
X12052300D01*
Y8191500D01*
X12077700Y8166100D01*
X12052300Y8140700D01*
Y8115300D01*
X11874500Y8128000D02*
X11899900D01*
X11925300Y8153400D01*
X11950700Y8128000D01*
X11976100D01*
Y8153400D01*
X11950700Y8178800D01*
X11976100Y8204200D01*
Y8229600D01*
X11950700D01*
X11925300Y8204200D01*
X11899900Y8229600D01*
X11874500D01*
Y8204200D01*
X11899900Y8178800D01*
X11874500Y8153400D01*
Y8128000D01*
X11493500Y8293100D02*
X11518900D01*
X11544300Y8318500D01*
X11569700Y8293100D01*
X11595100D01*
Y8318500D01*
X11569700Y8343900D01*
X11595100Y8369300D01*
Y8394700D01*
X11569700D01*
X11544300Y8369300D01*
X11518900Y8394700D01*
X11493500D01*
Y8369300D01*
X11518900Y8343900D01*
X11493500Y8318500D01*
Y8293100D01*
X11226800Y9067800D02*
X11252200D01*
X11277600Y9093200D01*
X11303000Y9067800D01*
X11328400D01*
Y9093200D01*
X11303000Y9118600D01*
X11328400Y9144000D01*
Y9169400D01*
X11303000D01*
X11277600Y9144000D01*
X11252200Y9169400D01*
X11226800D01*
Y9144000D01*
X11252200Y9118600D01*
X11226800Y9093200D01*
Y9067800D01*
X11036300Y8953500D02*
X11061700D01*
X11087100Y8978900D01*
X11112500Y8953500D01*
X11137900D01*
Y8978900D01*
X11112500Y9004300D01*
X11137900Y9029700D01*
Y9055100D01*
X11112500D01*
X11087100Y9029700D01*
X11061700Y9055100D01*
X11036300D01*
Y9029700D01*
X11061700Y9004300D01*
X11036300Y8978900D01*
Y8953500D01*
X11061700Y9855200D02*
Y9829800D01*
X11112500D01*
Y9855200D01*
X11137900D01*
Y9906000D01*
X11112500D01*
Y9931400D01*
X11061700D01*
Y9906000D01*
X11036300D01*
Y9855200D01*
X11061700D01*
X9982200Y9067800D02*
X10007600D01*
X10033000Y9093200D01*
X10058400Y9067800D01*
X10083800D01*
Y9093200D01*
X10058400Y9118600D01*
X10083800Y9144000D01*
Y9169400D01*
X10058400D01*
X10033000Y9144000D01*
X10007600Y9169400D01*
X9982200D01*
Y9144000D01*
X10007600Y9118600D01*
X9982200Y9093200D01*
Y9067800D01*
X10147300Y8940800D02*
X10172700D01*
X10198100Y8966200D01*
X10223500Y8940800D01*
X10248900D01*
Y8966200D01*
X10223500Y8991600D01*
X10248900Y9017000D01*
Y9042400D01*
X10223500D01*
X10198100Y9017000D01*
X10172700Y9042400D01*
X10147300D01*
Y9017000D01*
X10172700Y8991600D01*
X10147300Y8966200D01*
Y8940800D01*
X10972800Y8851900D02*
X10998200D01*
X11023600Y8877300D01*
X11049000Y8851900D01*
X11074400D01*
Y8877300D01*
X11049000Y8902700D01*
X11074400Y8928100D01*
Y8953500D01*
X11049000D01*
X11023600Y8928100D01*
X10998200Y8953500D01*
X10972800D01*
Y8928100D01*
X10998200Y8902700D01*
X10972800Y8877300D01*
Y8851900D01*
X11036300Y8585200D02*
X11061700D01*
X11087100Y8610600D01*
X11112500Y8585200D01*
X11137900D01*
Y8610600D01*
X11112500Y8636000D01*
X11137900Y8661400D01*
Y8686800D01*
X11112500D01*
X11087100Y8661400D01*
X11061700Y8686800D01*
X11036300D01*
Y8661400D01*
X11061700Y8636000D01*
X11036300Y8610600D01*
Y8585200D01*
X11226800Y7899400D02*
X11252200D01*
X11277600Y7924800D01*
X11303000Y7899400D01*
X11328400D01*
Y7924800D01*
X11303000Y7950200D01*
X11328400Y7975600D01*
Y8001000D01*
X11303000D01*
X11277600Y7975600D01*
X11252200Y8001000D01*
X11226800D01*
Y7975600D01*
X11252200Y7950200D01*
X11226800Y7924800D01*
Y7899400D01*
X11468100D02*
X11493500D01*
X11518900Y7924800D01*
X11544300Y7899400D01*
X11569700D01*
Y7924800D01*
X11544300Y7950200D01*
X11569700Y7975600D01*
Y8001000D01*
X11544300D01*
X11518900Y7975600D01*
X11493500Y8001000D01*
X11468100D01*
Y7975600D01*
X11493500Y7950200D01*
X11468100Y7924800D01*
Y7899400D01*
X11210716Y8229600D02*
X11236116D01*
X11261516Y8255000D01*
X11286916Y8229600D01*
X11312316D01*
Y8255000D01*
X11286916Y8280400D01*
X11312316Y8305800D01*
Y8331200D01*
X11286916D01*
X11261516Y8305800D01*
X11236116Y8331200D01*
X11210716D01*
Y8305800D01*
X11236116Y8280400D01*
X11210716Y8255000D01*
Y8229600D01*
X9744900Y8026400D02*
X9770300D01*
X9795700Y8051800D01*
X9821100Y8026400D01*
X9846500D01*
Y8051800D01*
X9821100Y8077200D01*
X9846500Y8102600D01*
Y8128000D01*
X9821100D01*
X9795700Y8102600D01*
X9770300Y8128000D01*
X9744900D01*
Y8102600D01*
X9770300Y8077200D01*
X9744900Y8051800D01*
Y8026400D01*
X10896600Y7950200D02*
X10922000D01*
X10947400Y7975600D01*
X10972800Y7950200D01*
X10998200D01*
Y7975600D01*
X10972800Y8001000D01*
X10998200Y8026400D01*
Y8051800D01*
X10972800D01*
X10947400Y8026400D01*
X10922000Y8051800D01*
X10896600D01*
Y8026400D01*
X10922000Y8001000D01*
X10896600Y7975600D01*
Y7950200D01*
X10909300Y7835900D02*
X10934700D01*
X10960100Y7861300D01*
X10985500Y7835900D01*
X11010900D01*
Y7861300D01*
X10985500Y7886700D01*
X11010900Y7912100D01*
Y7937500D01*
X10985500D01*
X10960100Y7912100D01*
X10934700Y7937500D01*
X10909300D01*
Y7912100D01*
X10934700Y7886700D01*
X10909300Y7861300D01*
Y7835900D01*
X11150600Y7162800D02*
X11176000D01*
X11201400Y7188200D01*
X11226800Y7162800D01*
X11252200D01*
Y7188200D01*
X11226800Y7213600D01*
X11252200Y7239000D01*
Y7264400D01*
X11226800D01*
X11201400Y7239000D01*
X11176000Y7264400D01*
X11150600D01*
Y7239000D01*
X11176000Y7213600D01*
X11150600Y7188200D01*
Y7162800D01*
X10731500Y7607300D02*
X10756900D01*
X10782300Y7632700D01*
X10807700Y7607300D01*
X10833100D01*
Y7632700D01*
X10807700Y7658100D01*
X10833100Y7683500D01*
Y7708900D01*
X10807700D01*
X10782300Y7683500D01*
X10756900Y7708900D01*
X10731500D01*
Y7683500D01*
X10756900Y7658100D01*
X10731500Y7632700D01*
Y7607300D01*
X10871200Y7048500D02*
X10896600D01*
X10922000Y7073900D01*
X10947400Y7048500D01*
X10972800D01*
Y7073900D01*
X10947400Y7099300D01*
X10972800Y7124700D01*
Y7150100D01*
X10947400D01*
X10922000Y7124700D01*
X10896600Y7150100D01*
X10871200D01*
Y7124700D01*
X10896600Y7099300D01*
X10871200Y7073900D01*
Y7048500D01*
X10528300Y7861300D02*
X10553700D01*
X10579100Y7886700D01*
X10604500Y7861300D01*
X10629900D01*
Y7886700D01*
X10604500Y7912100D01*
X10629900Y7937500D01*
Y7962900D01*
X10604500D01*
X10579100Y7937500D01*
X10553700Y7962900D01*
X10528300D01*
Y7937500D01*
X10553700Y7912100D01*
X10528300Y7886700D01*
Y7861300D01*
X10274300Y7874000D02*
X10299700D01*
X10325100Y7899400D01*
X10350500Y7874000D01*
X10375900D01*
Y7899400D01*
X10350500Y7924800D01*
X10375900Y7950200D01*
Y7975600D01*
X10350500D01*
X10325100Y7950200D01*
X10299700Y7975600D01*
X10274300D01*
Y7950200D01*
X10299700Y7924800D01*
X10274300Y7899400D01*
Y7874000D01*
X10248900Y7683500D02*
X10274300D01*
X10299700Y7708900D01*
X10325100Y7683500D01*
X10350500D01*
Y7708900D01*
X10325100Y7734300D01*
X10350500Y7759700D01*
Y7785100D01*
X10325100D01*
X10299700Y7759700D01*
X10274300Y7785100D01*
X10248900D01*
Y7759700D01*
X10274300Y7734300D01*
X10248900Y7708900D01*
Y7683500D01*
X10513600Y7025100D02*
X10539000D01*
X10564400Y7050500D01*
X10589800Y7025100D01*
X10615200D01*
Y7050500D01*
X10589800Y7075900D01*
X10615200Y7101300D01*
Y7126700D01*
X10589800D01*
X10564400Y7101300D01*
X10539000Y7126700D01*
X10513600D01*
Y7101300D01*
X10539000Y7075900D01*
X10513600Y7050500D01*
Y7025100D01*
X10223500Y7289800D02*
X10248900D01*
X10274300Y7315200D01*
X10299700Y7289800D01*
X10325100D01*
Y7315200D01*
X10299700Y7340600D01*
X10325100Y7366000D01*
Y7391400D01*
X10299700D01*
X10274300Y7366000D01*
X10248900Y7391400D01*
X10223500D01*
Y7366000D01*
X10248900Y7340600D01*
X10223500Y7315200D01*
Y7289800D01*
X10121900Y7251700D02*
X10147300D01*
X10172700Y7277100D01*
X10198100Y7251700D01*
X10223500D01*
Y7277100D01*
X10198100Y7302500D01*
X10223500Y7327900D01*
Y7353300D01*
X10198100D01*
X10172700Y7327900D01*
X10147300Y7353300D01*
X10121900D01*
Y7327900D01*
X10147300Y7302500D01*
X10121900Y7277100D01*
Y7251700D01*
X10375900Y7175500D02*
X10401300D01*
X10426700Y7200900D01*
X10452100Y7175500D01*
X10477500D01*
Y7200900D01*
X10452100Y7226300D01*
X10477500Y7251700D01*
Y7277100D01*
X10452100D01*
X10426700Y7251700D01*
X10401300Y7277100D01*
X10375900D01*
Y7251700D01*
X10401300Y7226300D01*
X10375900Y7200900D01*
Y7175500D01*
X9499600Y9944100D02*
X9525000D01*
X9550400Y9969500D01*
X9575800Y9944100D01*
X9601200D01*
Y9969500D01*
X9575800Y9994900D01*
X9601200Y10020300D01*
Y10045700D01*
X9575800D01*
X9550400Y10020300D01*
X9525000Y10045700D01*
X9499600D01*
Y10020300D01*
X9525000Y9994900D01*
X9499600Y9969500D01*
Y9944100D01*
X9131300Y9664700D02*
X9156700D01*
X9182100Y9690100D01*
X9207500Y9664700D01*
X9232900D01*
Y9690100D01*
X9207500Y9715500D01*
X9232900Y9740900D01*
Y9766300D01*
X9207500D01*
X9182100Y9740900D01*
X9156700Y9766300D01*
X9131300D01*
Y9740900D01*
X9156700Y9715500D01*
X9131300Y9690100D01*
Y9664700D01*
Y9499600D02*
X9156700D01*
X9182100Y9525000D01*
X9207500Y9499600D01*
X9232900D01*
Y9525000D01*
X9207500Y9550400D01*
X9232900Y9575800D01*
Y9601200D01*
X9207500D01*
X9182100Y9575800D01*
X9156700Y9601200D01*
X9131300D01*
Y9575800D01*
X9156700Y9550400D01*
X9131300Y9525000D01*
Y9499600D01*
Y9321800D02*
X9156700D01*
X9182100Y9347200D01*
X9207500Y9321800D01*
X9232900D01*
Y9347200D01*
X9207500Y9372600D01*
X9232900Y9398000D01*
Y9423400D01*
X9207500D01*
X9182100Y9398000D01*
X9156700Y9423400D01*
X9131300D01*
Y9398000D01*
X9156700Y9372600D01*
X9131300Y9347200D01*
Y9321800D01*
X7645400Y9829800D02*
X7670800D01*
X7696200Y9855200D01*
X7721600Y9829800D01*
X7747000D01*
Y9855200D01*
X7721600Y9880600D01*
X7747000Y9906000D01*
Y9931400D01*
X7721600D01*
X7696200Y9906000D01*
X7670800Y9931400D01*
X7645400D01*
Y9906000D01*
X7670800Y9880600D01*
X7645400Y9855200D01*
Y9829800D01*
X7658100Y9664700D02*
X7683500D01*
X7708900Y9690100D01*
X7734300Y9664700D01*
X7759700D01*
Y9690100D01*
X7734300Y9715500D01*
X7759700Y9740900D01*
Y9766300D01*
X7734300D01*
X7708900Y9740900D01*
X7683500Y9766300D01*
X7658100D01*
Y9740900D01*
X7683500Y9715500D01*
X7658100Y9690100D01*
Y9664700D01*
X9334500Y8851900D02*
X9359900D01*
X9385300Y8877300D01*
X9410700Y8851900D01*
X9436100D01*
Y8877300D01*
X9410700Y8902700D01*
X9436100Y8928100D01*
Y8953500D01*
X9410700D01*
X9385300Y8928100D01*
X9359900Y8953500D01*
X9334500D01*
Y8928100D01*
X9359900Y8902700D01*
X9334500Y8877300D01*
Y8851900D01*
X9347200Y7899400D02*
X9372600D01*
X9398000Y7924800D01*
X9423400Y7899400D01*
X9448800D01*
Y7924800D01*
X9423400Y7950200D01*
X9448800Y7975600D01*
Y8001000D01*
X9423400D01*
X9398000Y7975600D01*
X9372600Y8001000D01*
X9347200D01*
Y7975600D01*
X9372600Y7950200D01*
X9347200Y7924800D01*
Y7899400D01*
X9588500Y7315200D02*
X9613900D01*
X9639300Y7340600D01*
X9664700Y7315200D01*
X9690100D01*
Y7340600D01*
X9664700Y7366000D01*
X9690100Y7391400D01*
Y7416800D01*
X9664700D01*
X9639300Y7391400D01*
X9613900Y7416800D01*
X9588500D01*
Y7391400D01*
X9613900Y7366000D01*
X9588500Y7340600D01*
Y7315200D01*
X9436100D02*
X9461500D01*
X9486900Y7340600D01*
X9512300Y7315200D01*
X9537700D01*
Y7340600D01*
X9512300Y7366000D01*
X9537700Y7391400D01*
Y7416800D01*
X9512300D01*
X9486900Y7391400D01*
X9461500Y7416800D01*
X9436100D01*
Y7391400D01*
X9461500Y7366000D01*
X9436100Y7340600D01*
Y7315200D01*
X9232900Y7835900D02*
X9258300D01*
X9283700Y7861300D01*
X9309100Y7835900D01*
X9334500D01*
Y7861300D01*
X9309100Y7886700D01*
X9334500Y7912100D01*
Y7937500D01*
X9309100D01*
X9283700Y7912100D01*
X9258300Y7937500D01*
X9232900D01*
Y7912100D01*
X9258300Y7886700D01*
X9232900Y7861300D01*
Y7835900D01*
X9075338Y7246538D02*
X9100738D01*
X9126138Y7271938D01*
X9151538Y7246538D01*
X9176938D01*
Y7271938D01*
X9151538Y7297338D01*
X9176938Y7322738D01*
Y7348138D01*
X9151538D01*
X9126138Y7322738D01*
X9100738Y7348138D01*
X9075338D01*
Y7322738D01*
X9100738Y7297338D01*
X9075338Y7271938D01*
Y7246538D01*
X9071200Y6975700D02*
X9096600D01*
X9122000Y7001100D01*
X9147400Y6975700D01*
X9172800D01*
Y7001100D01*
X9147400Y7026500D01*
X9172800Y7051900D01*
Y7077300D01*
X9147400D01*
X9122000Y7051900D01*
X9096600Y7077300D01*
X9071200D01*
Y7051900D01*
X9096600Y7026500D01*
X9071200Y7001100D01*
Y6975700D01*
X8445500Y8788400D02*
X8470900D01*
X8496300Y8813800D01*
X8521700Y8788400D01*
X8547100D01*
Y8813800D01*
X8521700Y8839200D01*
X8547100Y8864600D01*
Y8890000D01*
X8521700D01*
X8496300Y8864600D01*
X8470900Y8890000D01*
X8445500D01*
Y8864600D01*
X8470900Y8839200D01*
X8445500Y8813800D01*
Y8788400D01*
X8102600Y8801100D02*
X8128000D01*
X8153400Y8826500D01*
X8178800Y8801100D01*
X8204200D01*
Y8826500D01*
X8178800Y8851900D01*
X8204200Y8877300D01*
Y8902700D01*
X8178800D01*
X8153400Y8877300D01*
X8128000Y8902700D01*
X8102600D01*
Y8877300D01*
X8128000Y8851900D01*
X8102600Y8826500D01*
Y8801100D01*
X7886700Y8978900D02*
X7912100D01*
X7937500Y9004300D01*
X7962900Y8978900D01*
X7988300D01*
Y9004300D01*
X7962900Y9029700D01*
X7988300Y9055100D01*
Y9080500D01*
X7962900D01*
X7937500Y9055100D01*
X7912100Y9080500D01*
X7886700D01*
Y9055100D01*
X7912100Y9029700D01*
X7886700Y9004300D01*
Y8978900D01*
X8001000D02*
X8026400D01*
X8051800Y9004300D01*
X8077200Y8978900D01*
X8102600D01*
Y9004300D01*
X8077200Y9029700D01*
X8102600Y9055100D01*
Y9080500D01*
X8077200D01*
X8051800Y9055100D01*
X8026400Y9080500D01*
X8001000D01*
Y9055100D01*
X8026400Y9029700D01*
X8001000Y9004300D01*
Y8978900D01*
X7982200Y8337800D02*
X8007600D01*
X8033000Y8363200D01*
X8058400Y8337800D01*
X8083800D01*
Y8363200D01*
X8058400Y8388600D01*
X8083800Y8414000D01*
Y8439400D01*
X8058400D01*
X8033000Y8414000D01*
X8007600Y8439400D01*
X7982200D01*
Y8414000D01*
X8007600Y8388600D01*
X7982200Y8363200D01*
Y8337800D01*
X9004300Y8140700D02*
X9029700D01*
X9055100Y8166100D01*
X9080500Y8140700D01*
X9105900D01*
Y8166100D01*
X9080500Y8191500D01*
X9105900Y8216900D01*
Y8242300D01*
X9080500D01*
X9055100Y8216900D01*
X9029700Y8242300D01*
X9004300D01*
Y8216900D01*
X9029700Y8191500D01*
X9004300Y8166100D01*
Y8140700D01*
X8864600Y8204200D02*
X8890000D01*
X8915400Y8229600D01*
X8940800Y8204200D01*
X8966200D01*
Y8229600D01*
X8940800Y8255000D01*
X8966200Y8280400D01*
Y8305800D01*
X8940800D01*
X8915400Y8280400D01*
X8890000Y8305800D01*
X8864600D01*
Y8280400D01*
X8890000Y8255000D01*
X8864600Y8229600D01*
Y8204200D01*
X8661400Y8191500D02*
X8686800D01*
X8712200Y8216900D01*
X8737600Y8191500D01*
X8763000D01*
Y8216900D01*
X8737600Y8242300D01*
X8763000Y8267700D01*
Y8293100D01*
X8737600D01*
X8712200Y8267700D01*
X8686800Y8293100D01*
X8661400D01*
Y8267700D01*
X8686800Y8242300D01*
X8661400Y8216900D01*
Y8191500D01*
X8801100Y7848600D02*
X8826500D01*
X8851900Y7874000D01*
X8877300Y7848600D01*
X8902700D01*
Y7874000D01*
X8877300Y7899400D01*
X8902700Y7924800D01*
Y7950200D01*
X8877300D01*
X8851900Y7924800D01*
X8826500Y7950200D01*
X8801100D01*
Y7924800D01*
X8826500Y7899400D01*
X8801100Y7874000D01*
Y7848600D01*
Y8801100D02*
X8826500D01*
X8851900Y8826500D01*
X8877300Y8801100D01*
X8902700D01*
Y8826500D01*
X8877300Y8851900D01*
X8902700Y8877300D01*
Y8902700D01*
X8877300D01*
X8851900Y8877300D01*
X8826500Y8902700D01*
X8801100D01*
Y8877300D01*
X8826500Y8851900D01*
X8801100Y8826500D01*
Y8801100D01*
X8813800Y8585200D02*
X8839200D01*
X8864600Y8610600D01*
X8890000Y8585200D01*
X8915400D01*
Y8610600D01*
X8890000Y8636000D01*
X8915400Y8661400D01*
Y8686800D01*
X8890000D01*
X8864600Y8661400D01*
X8839200Y8686800D01*
X8813800D01*
Y8661400D01*
X8839200Y8636000D01*
X8813800Y8610600D01*
Y8585200D01*
X9774567Y9228467D02*
X9799967D01*
X9825367Y9253867D01*
X9850767Y9228467D01*
X9876167D01*
Y9253867D01*
X9850767Y9279267D01*
X9876167Y9304667D01*
Y9330067D01*
X9850767D01*
X9825367Y9304667D01*
X9799967Y9330067D01*
X9774567D01*
Y9304667D01*
X9799967Y9279267D01*
X9774567Y9253867D01*
Y9228467D01*
X9677400Y8356600D02*
X9702800D01*
X9728200Y8382000D01*
X9753600Y8356600D01*
X9779000D01*
Y8382000D01*
X9753600Y8407400D01*
X9779000Y8432800D01*
Y8458200D01*
X9753600D01*
X9728200Y8432800D01*
X9702800Y8458200D01*
X9677400D01*
Y8432800D01*
X9702800Y8407400D01*
X9677400Y8382000D01*
Y8356600D01*
X7848600Y9525000D02*
X7874000D01*
X7899400Y9550400D01*
X7924800Y9525000D01*
X7950200D01*
Y9550400D01*
X7924800Y9575800D01*
X7950200Y9601200D01*
Y9626600D01*
X7924800D01*
X7899400Y9601200D01*
X7874000Y9626600D01*
X7848600D01*
Y9601200D01*
X7874000Y9575800D01*
X7848600Y9550400D01*
Y9525000D01*
X7683500Y8966200D02*
X7708900D01*
X7734300Y8991600D01*
X7759700Y8966200D01*
X7785100D01*
Y8991600D01*
X7759700Y9017000D01*
X7785100Y9042400D01*
Y9067800D01*
X7759700D01*
X7734300Y9042400D01*
X7708900Y9067800D01*
X7683500D01*
Y9042400D01*
X7708900Y9017000D01*
X7683500Y8991600D01*
Y8966200D01*
X8966200Y7543800D02*
X8991600D01*
X9017000Y7569200D01*
X9042400Y7543800D01*
X9067800D01*
Y7569200D01*
X9042400Y7594600D01*
X9067800Y7620000D01*
Y7645400D01*
X9042400D01*
X9017000Y7620000D01*
X8991600Y7645400D01*
X8966200D01*
Y7620000D01*
X8991600Y7594600D01*
X8966200Y7569200D01*
Y7543800D01*
X10185400Y9855200D02*
Y9829800D01*
X10236200D01*
Y9855200D01*
X10261600D01*
Y9906000D01*
X10236200D01*
Y9931400D01*
X10185400D01*
Y9906000D01*
X10160000D01*
Y9855200D01*
X10185400D01*
X9626600Y9474200D02*
X9652000D01*
X9677400Y9499600D01*
X9702800Y9474200D01*
X9728200D01*
Y9499600D01*
X9702800Y9525000D01*
X9728200Y9550400D01*
Y9575800D01*
X9702800D01*
X9677400Y9550400D01*
X9652000Y9575800D01*
X9626600D01*
Y9550400D01*
X9652000Y9525000D01*
X9626600Y9499600D01*
Y9474200D01*
X8242300Y8712200D02*
X8267700D01*
X8293100Y8737600D01*
X8318500Y8712200D01*
X8343900D01*
Y8737600D01*
X8318500Y8763000D01*
X8343900Y8788400D01*
Y8813800D01*
X8318500D01*
X8293100Y8788400D01*
X8267700Y8813800D01*
X8242300D01*
Y8788400D01*
X8267700Y8763000D01*
X8242300Y8737600D01*
Y8712200D01*
X10172700Y7810500D02*
X10198100D01*
X10223500Y7835900D01*
X10248900Y7810500D01*
X10274300D01*
Y7835900D01*
X10248900Y7861300D01*
X10274300Y7886700D01*
Y7912100D01*
X10248900D01*
X10223500Y7886700D01*
X10198100Y7912100D01*
X10172700D01*
Y7886700D01*
X10198100Y7861300D01*
X10172700Y7835900D01*
Y7810500D01*
X10083800Y7340600D02*
X10109200D01*
X10134600Y7366000D01*
X10160000Y7340600D01*
X10185400D01*
Y7366000D01*
X10160000Y7391400D01*
X10185400Y7416800D01*
Y7442200D01*
X10160000D01*
X10134600Y7416800D01*
X10109200Y7442200D01*
X10083800D01*
Y7416800D01*
X10109200Y7391400D01*
X10083800Y7366000D01*
Y7340600D01*
X10744200Y8331200D02*
X10795000Y8382000D01*
X10845800Y8331200D01*
X10795000Y8280400D01*
X10744200Y8331200D01*
X7950200Y7251700D02*
X7975600Y7302500D01*
X7950200Y7353300D01*
X8001000Y7327900D01*
X8051800Y7353300D01*
X8026400Y7302500D01*
X8051800Y7251700D01*
X8001000Y7277100D01*
X7950200Y7251700D01*
X8204200D02*
X8229600Y7302500D01*
X8204200Y7353300D01*
X8255000Y7327900D01*
X8305800Y7353300D01*
X8280400Y7302500D01*
X8305800Y7251700D01*
X8255000Y7277100D01*
X8204200Y7251700D01*
X9944100Y6985000D02*
X9969500Y7010400D01*
X9994900D01*
X9969500Y7035800D01*
X9994900Y7061200D01*
X9969500D01*
X9944100Y7086600D01*
X9918700Y7061200D01*
X9893300D01*
X9918700Y7035800D01*
X9893300Y7010400D01*
X9918700D01*
X9944100Y6985000D01*
X9644100D02*
X9669500Y7010400D01*
X9694900D01*
X9669500Y7035800D01*
X9694900Y7061200D01*
X9669500D01*
X9644100Y7086600D01*
X9618700Y7061200D01*
X9593300D01*
X9618700Y7035800D01*
X9593300Y7010400D01*
X9618700D01*
X9644100Y6985000D01*
X11760500Y8950400D02*
X11709700Y9052000D01*
X11811300D01*
X11760500Y8950400D01*
Y8372400D02*
X11709700Y8474000D01*
X11811300D01*
X11760500Y8372400D01*
X11404600Y8953500D02*
X11455400Y9004300D01*
X11506200Y8953500D01*
X11455400Y8902700D01*
X11404600Y8953500D01*
D133*
X11761300Y9144200D02*
G03*
X11761300Y9144200I-50800J0D01*
G01*
Y8280200D02*
G03*
X11761300Y8280200I-50800J0D01*
G01*
%TF.MD5,982b0341fb53597b7eed25bd044df8c5*%
M02*
