%TF.GenerationSoftware,Altium Limited,Altium Designer,26.9.1 (10)*%
G04 Layer_Color=16711935*
G04 Board_Origin=0|0*
%FSLAX45Y45*%
%MOMM*%
%TF.SameCoordinates,0F0F98C6-4292-453F-8291-51E5F11EF676*%
%TF.FilePolarity,Positive*%
%TF.FileFunction,Other,Mechanical_13*%
%TF.Part,Single*%
G01*
G75*
%TA.AperFunction,NonConductor*%
%ADD47C,0.10000*%
%ADD49C,0.30000*%
%ADD50C,0.25000*%
%ADD51C,0.20000*%
%ADD53C,0.12700*%
D47*
X10542400Y7248400D02*
X10717400D01*
X10542400Y7153400D02*
X10717400D01*
X10542400D02*
Y7248400D01*
X10717400Y7153400D02*
Y7248400D01*
X8128400Y10627600D02*
X9448400D01*
Y8967600D02*
Y10627600D01*
X8128400Y8967600D02*
X9448400D01*
X8128400D02*
Y10627600D01*
X9517700Y8124700D02*
X9692700D01*
X9517700Y8029700D02*
X9692700D01*
X9517700D02*
Y8124700D01*
X9692700Y8029700D02*
Y8124700D01*
X10226800Y7456300D02*
Y7631300D01*
X10321800Y7456300D02*
Y7631300D01*
X10226800Y7456300D02*
X10321800D01*
X10226800Y7631300D02*
X10321800D01*
X9712200Y7456300D02*
Y7631300D01*
X9617200Y7456300D02*
Y7631300D01*
X9712200D01*
X9617200Y7456300D02*
X9712200D01*
X10353100Y9643600D02*
X10953100D01*
Y9043600D02*
Y9643600D01*
X10353100Y9043600D02*
X10953100D01*
X10353100D02*
Y9643600D01*
X8867900Y7505800D02*
X8962900D01*
X8867900Y7330800D02*
X8962900D01*
Y7505800D01*
X8867900Y7330800D02*
Y7505800D01*
X8609200Y8232900D02*
Y8327900D01*
X8434200Y8232900D02*
Y8327900D01*
Y8232900D02*
X8609200D01*
X8434200Y8327900D02*
X8609200D01*
X7799200Y9833100D02*
X7974200D01*
X7799200Y9928100D02*
X7974200D01*
Y9833100D02*
Y9928100D01*
X7799200Y9833100D02*
Y9928100D01*
X7699500Y9320400D02*
X7794500D01*
X7699500Y9145400D02*
X7794500D01*
Y9320400D01*
X7699500Y9145400D02*
Y9320400D01*
X8051900Y7793900D02*
X8108200Y7850100D01*
X8051900Y7720100D02*
Y7850100D01*
Y7720100D02*
X8229500D01*
Y7850100D01*
X8051900D02*
X8229500D01*
X10832000Y8464400D02*
X10927000Y8559400D01*
Y8464400D02*
Y8756800D01*
X10764600D02*
X10927000D01*
X10764600Y8464400D02*
Y8756800D01*
Y8464400D02*
X10927000D01*
X10391900Y7642800D02*
Y7817800D01*
X10486900Y7642800D02*
Y7817800D01*
X10391900Y7642800D02*
X10486900D01*
X10391900Y7817800D02*
X10486900D01*
X9496700Y8359900D02*
Y8454900D01*
X9321700Y8359900D02*
Y8454900D01*
Y8359900D02*
X9496700D01*
X9321700Y8454900D02*
X9496700D01*
X9731500Y8599300D02*
X9826500D01*
X9731500Y8774300D02*
X9826500D01*
X9731500Y8599300D02*
Y8774300D01*
X9826500Y8599300D02*
Y8774300D01*
X11026900Y7189600D02*
X11121900D01*
X11026900Y7364600D02*
X11121900D01*
X11026900Y7189600D02*
Y7364600D01*
X11121900Y7189600D02*
Y7364600D01*
X9782300Y9386700D02*
X9877300D01*
X9782300Y9561700D02*
X9877300D01*
X9782300Y9386700D02*
Y9561700D01*
X9877300Y9386700D02*
Y9561700D01*
X8525000Y7253100D02*
X8620000D01*
X8525000Y7428100D02*
X8620000D01*
X8525000Y7253100D02*
Y7428100D01*
X8620000Y7253100D02*
Y7428100D01*
X10823700Y7377300D02*
X10918700D01*
X10823700Y7202300D02*
X10918700D01*
Y7377300D01*
X10823700Y7202300D02*
Y7377300D01*
X11352400Y8385300D02*
Y8480300D01*
X11177400Y8385300D02*
Y8480300D01*
Y8385300D02*
X11352400D01*
X11177400Y8480300D02*
X11352400D01*
X9350100Y8677400D02*
Y8772400D01*
X9525100Y8677400D02*
Y8772400D01*
X9350100D02*
X9525100D01*
X9350100Y8677400D02*
X9525100D01*
X8609200Y8410700D02*
Y8505700D01*
X8434200Y8410700D02*
Y8505700D01*
Y8410700D02*
X8609200D01*
X8434200Y8505700D02*
X8609200D01*
X8275500Y8060700D02*
Y8220700D01*
X7980500Y8060700D02*
X8275500D01*
X7980500D02*
Y8220700D01*
X8275500D01*
X8180500D02*
X8275500Y8125700D01*
X10747500Y8177400D02*
X10842500D01*
X10747500Y8002400D02*
X10842500D01*
Y8177400D01*
X10747500Y8002400D02*
Y8177400D01*
X8967600Y7908800D02*
X9142600D01*
X8967600Y7813800D02*
X9142600D01*
X8967600D02*
Y7908800D01*
X9142600Y7813800D02*
Y7908800D01*
X7799200Y9668000D02*
X7974200D01*
X7799200Y9763000D02*
X7974200D01*
Y9668000D02*
Y9763000D01*
X7799200Y9668000D02*
Y9763000D01*
X7959600Y9141400D02*
Y9316400D01*
X7864600Y9141400D02*
Y9316400D01*
X7959600D01*
X7864600Y9141400D02*
X7959600D01*
X9967200Y7563900D02*
X10062200Y7658900D01*
Y7563900D02*
Y7853900D01*
X9902200D02*
X10062200D01*
X9902200Y7563900D02*
Y7853900D01*
Y7563900D02*
X10062200D01*
X10430000Y7505800D02*
X10525000D01*
X10430000Y7330800D02*
X10525000D01*
Y7505800D01*
X10430000Y7330800D02*
Y7505800D01*
X9534400Y7456300D02*
Y7631300D01*
X9439400Y7456300D02*
Y7631300D01*
X9534400D01*
X9439400Y7456300D02*
X9534400D01*
X9922000Y8688200D02*
X10017000D01*
X9922000Y8863200D02*
X10017000D01*
X9922000Y8688200D02*
Y8863200D01*
X10017000Y8688200D02*
Y8863200D01*
X11653500Y8265200D02*
Y9159200D01*
X12388500D01*
Y8265200D02*
Y9159200D01*
X11653500Y8265200D02*
X12388500D01*
Y9159200D02*
Y9552200D01*
X11113900Y8855200D02*
Y8950200D01*
X11288900Y8855200D02*
Y8950200D01*
X11113900D02*
X11288900D01*
X11113900Y8855200D02*
X11288900D01*
X11052300Y7655500D02*
Y7830500D01*
X11147300Y7655500D02*
Y7830500D01*
X11052300Y7655500D02*
X11147300D01*
X11052300Y7830500D02*
X11147300D01*
X8910400Y7096800D02*
X9130400D01*
X8910400Y7231800D02*
X9130400D01*
Y7096800D02*
Y7231800D01*
X8910400Y7096800D02*
Y7231800D01*
D49*
X11314200Y7463700D02*
G03*
X11314200Y7463700I-10000J0D01*
G01*
D50*
X9484100Y7285800D02*
G03*
X9484100Y7285800I-10000J0D01*
G01*
D51*
X11048700Y7562700D02*
G03*
X11048700Y7562700I-10000J0D01*
G01*
X11538500Y8387200D02*
G03*
X11538500Y8387200I-10000J0D01*
G01*
X9134400Y8014500D02*
Y8264500D01*
Y8014500D02*
X9434400D01*
Y8264500D01*
X9134400D02*
X9434400D01*
X7851013Y7627499D02*
X8405018D01*
X7851013Y6977503D02*
Y7627499D01*
Y6977503D02*
X8405018D01*
Y7627499D01*
D53*
X11404200Y8073700D02*
X12164200D01*
Y7283700D02*
Y8073700D01*
X11404200Y7283700D02*
X12164200D01*
X11404200D02*
Y8073700D01*
X9944100Y6755800D02*
Y6905800D01*
X9644100Y6755800D02*
X9944100D01*
X9644100D02*
Y6905800D01*
X9459100D02*
Y7165800D01*
Y6905800D02*
X9644100D01*
X9944100D01*
X10129100D01*
Y7165800D01*
X9459100D02*
X10129100D01*
X10641200Y7807700D02*
X10941200D01*
X10641200Y7507700D02*
X10941200D01*
X10641200D02*
Y7807700D01*
X10941200Y7507700D02*
Y7807700D01*
%TF.MD5,e8f70d891349ef4256609d6133f013c7*%
M02*
