%TF.GenerationSoftware,Altium Limited,Altium Designer,26.9.1 (10)*%
G04 Layer_Physical_Order=3*
G04 Layer_Color=16440176*
G04 Board_Origin=0|0*
%FSLAX45Y45*%
%MOMM*%
%TF.SameCoordinates,0F0F98C6-4292-453F-8291-51E5F11EF676*%
%TF.FilePolarity,Positive*%
%TF.FileFunction,Copper,L3,Inr,Signal*%
%TF.Part,Single*%
G01*
G75*
%TA.AperFunction,Conductor*%
%ADD36C,0.25400*%
%TA.AperFunction,ViaPad*%
%ADD39C,0.70000*%
%TA.AperFunction,ComponentPad*%
G04:AMPARAMS|DCode=40|XSize=1.8mm|YSize=1mm|CornerRadius=0.25mm|HoleSize=0mm|Usage=FLASHONLY|Rotation=180.000|XOffset=0mm|YOffset=0mm|HoleType=Round|Shape=RoundedRectangle|*
%AMROUNDEDRECTD40*
21,1,1.80000,0.50000,0,0,180.0*
21,1,1.30000,1.00000,0,0,180.0*
1,1,0.50000,-0.65000,0.25000*
1,1,0.50000,0.65000,0.25000*
1,1,0.50000,0.65000,-0.25000*
1,1,0.50000,-0.65000,-0.25000*
%
%ADD40ROUNDEDRECTD40*%
%ADD41O,2.10000X1.00000*%
%TA.AperFunction,ViaPad*%
G04:AMPARAMS|DCode=42|XSize=2.5mm|YSize=2.5mm|CornerRadius=0.625mm|HoleSize=0mm|Usage=FLASHONLY|Rotation=0.000|XOffset=0mm|YOffset=0mm|HoleType=Round|Shape=RoundedRectangle|*
%AMROUNDEDRECTD42*
21,1,2.50000,1.25000,0,0,0.0*
21,1,1.25000,2.50000,0,0,0.0*
1,1,1.25000,0.62500,-0.62500*
1,1,1.25000,-0.62500,-0.62500*
1,1,1.25000,-0.62500,0.62500*
1,1,1.25000,0.62500,0.62500*
%
%ADD42ROUNDEDRECTD42*%
%ADD43C,1.50000*%
%TA.AperFunction,ComponentPad*%
%ADD44O,1.75000X2.50000*%
%ADD45C,0.90000*%
%ADD46C,0.65000*%
D36*
X9825367Y9279267D02*
X9931400Y9182100D01*
Y8496300D02*
Y9182100D01*
X9728200Y8407400D02*
X9842500D01*
X9931400Y8496300D01*
X9626600Y8280400D02*
X9728200Y8407400D01*
X9002279Y8280400D02*
X9626600D01*
X8987400Y8265521D02*
X9002279Y8280400D01*
X7797800Y9575800D02*
X7899400D01*
X7645400Y9423400D02*
X7797800Y9575800D01*
X7645400Y9055100D02*
Y9423400D01*
Y9055100D02*
X7683500Y9017000D01*
X7734300D01*
X9017000Y7594600D02*
Y7898306D01*
X8940800Y7594600D02*
X9017000D01*
X8987400Y7927906D02*
X9017000Y7898306D01*
X8987400Y7927906D02*
Y8265521D01*
X8813800Y7721600D02*
X8940800Y7594600D01*
X7734300Y7823200D02*
X7835900Y7721600D01*
X7734300Y7823200D02*
Y9017000D01*
X7835900Y7721600D02*
X8813800D01*
D39*
X8547100Y8102600D02*
D03*
X7950200Y9461500D02*
D03*
X8390840Y9378666D02*
D03*
Y9556466D02*
D03*
Y9734266D02*
D03*
X12128500Y9258300D02*
D03*
X11709400Y9245600D02*
D03*
X11531600Y9093200D02*
D03*
X12103100Y8166100D02*
D03*
X11925300Y8178800D02*
D03*
X11544300Y8343900D02*
D03*
X11277600Y9118600D02*
D03*
X11087100Y9004300D02*
D03*
X10033000Y9118600D02*
D03*
X10198100Y8991600D02*
D03*
X11023600Y8902700D02*
D03*
X11087100Y8636000D02*
D03*
X11277600Y7950200D02*
D03*
X11518900D02*
D03*
X11261516Y8280400D02*
D03*
X9795700Y8077200D02*
D03*
X10947400Y8001000D02*
D03*
X10960100Y7886700D02*
D03*
X11201400Y7213600D02*
D03*
X10782300Y7658100D02*
D03*
X10922000Y7099300D02*
D03*
X10579100Y7912100D02*
D03*
X10325100Y7924800D02*
D03*
X10299700Y7734300D02*
D03*
X10564400Y7075900D02*
D03*
X10274300Y7340600D02*
D03*
X10172700Y7302500D02*
D03*
X10426700Y7226300D02*
D03*
X9550400Y9994900D02*
D03*
X9182100Y9715500D02*
D03*
Y9550400D02*
D03*
Y9372600D02*
D03*
X7696200Y9880600D02*
D03*
X7708900Y9715500D02*
D03*
X9385300Y8902700D02*
D03*
X9398000Y7950200D02*
D03*
X9639300Y7366000D02*
D03*
X9486900D02*
D03*
X9283700Y7886700D02*
D03*
X9126138Y7297338D02*
D03*
X9122000Y7026500D02*
D03*
X8496300Y8839200D02*
D03*
X8153400Y8851900D02*
D03*
X7937500Y9029700D02*
D03*
X8051800D02*
D03*
X8033000Y8388600D02*
D03*
X9055100Y8191500D02*
D03*
X8915400Y8255000D02*
D03*
X8712200Y8242300D02*
D03*
X8851900Y7899400D02*
D03*
Y8851900D02*
D03*
X8864600Y8636000D02*
D03*
X9825367Y9279267D02*
D03*
X9728200Y8407400D02*
D03*
X7899400Y9575800D02*
D03*
X7734300Y9017000D02*
D03*
X9017000Y7594600D02*
D03*
X9677400Y9525000D02*
D03*
X8293100Y8763000D02*
D03*
X10223500Y7861300D02*
D03*
X10134600Y7391400D02*
D03*
D40*
X12128500Y9144200D02*
D03*
Y8280200D02*
D03*
D41*
X11710500Y9144200D02*
D03*
Y8280200D02*
D03*
D42*
X11087100Y9880600D02*
D03*
X10210800D02*
D03*
D43*
X10795000Y8331200D02*
D03*
X11455400Y8953500D02*
D03*
D44*
X8001000Y7302500D02*
D03*
X8255000D02*
D03*
D45*
X9944100Y7035800D02*
D03*
X9644100D02*
D03*
D46*
X11760500Y9001200D02*
D03*
Y8423200D02*
D03*
%TF.MD5,6885e00c869da9368ecaaccd8adbe695*%
M02*
